<svg width="1024" height="1024" version="1.1" viewBox="0 0 270.93 270.93" xmlns="http://www.w3.org/2000/svg">
 <g transform="translate(198.81 -61.601)">
  <g transform="matrix(.26458 0 0 .26458 -146.21 244.55)">
   <rect x="-198.82" y="-691.47" width="1024" height="1024" fill="#ff9800"/>
   <path d="m-198.82 331.47c0-1.3122 339.22-797.97 342.84-805.13 3.2278-6.4029 7.3519-10.442 14.199-13.903 4.4112-2.2319 6.4041-2.642 12.819-2.6479 6.5798-4e-3 8.6765 0.46865 15.667 3.386 35.074 14.745 567.16 241.65 569.78 242.99 4.5225 2.2964 11.062 9.5441 13.533 14.996 1.5172 3.345 2.0093 6.3174 2.0035 12.036l-0.0111 7.5968-230.64 541.68-343.44 0.0522-5.6179-5.0849c-10.297-9.3173-22.529-13.904-37.084-13.904-14.113 0-28.439 5.9155-37.781 15.599l-3.2688 3.3918h-30.674c-16.871 0-30.674-0.17583-30.674-0.35131 0-0.17584 1.2419-3.0814 2.7592-6.424 7.4228-16.37 6.0274-36-3.6203-50.892-10.188-15.731-26.986-25.105-45.133-25.189-9.7022-0.045-16.217 1.4177-24.775 5.5652-8.5569 4.1476-15.388 10.158-20.681 18.195-6.1862 9.3952-8.4023 16.09-8.9782 27.128-0.58581 10.7 0.58582 17.175 4.5752 26.024l2.6772 5.9348h-79.228c-57.268 0-79.229-0.29307-79.229-1.0486zm584.23-4.5869c3.9601-1.0135 9.0472-2.7826 11.309-3.9308 20.298-10.326 32.655-33.572 29.417-55.342-4.1534-27.933-26.089-47.136-53.843-47.136-43.551 0-69.059 47.962-44.799 84.234 12.758 19.074 35.697 27.858 57.915 22.175zm-151.7-63.209c16.349-3.4329 30.24-14.244 37.357-29.079 4.7626-9.9307 6.2945-17.567 5.5535-27.719-2.0679-28.241-25.364-50.217-53.353-50.335-9.4609-0.0403-16.14 1.4821-24.716 5.6414-12.109 5.8687-22.028 16.982-27.029 30.278-2.683 7.1281-3.6496 21.942-1.9508 29.762 4.0655 18.687 18.628 34.324 37.551 40.321 9.001 2.8529 16.801 3.181 26.588 1.1306zm-150.03-63.622c19.949-4.1886 36.599-19.889 41.794-39.409 1.7809-6.6976 1.7809-20.825 0-27.523-4.7919-18.01-19.684-33.125-37.995-38.563-8.6694-2.5776-21.909-2.3433-30.814 0.52723-17.018 5.5125-29.666 18.288-35.753 36.115-2.4956 7.3016-2.4956 24.031-0.0012 31.336 4.1241 12.085 10.067 20.5 19.461 27.549 12.993 9.7514 27.926 13.184 43.308 9.9541zm366.53-29.436c16.349-3.4329 30.24-14.244 37.357-29.079 4.7685-9.9313 6.2952-17.567 5.5535-27.719-2.0679-28.242-25.363-50.217-53.353-50.335-9.4626-0.04035-16.149 1.4879-24.689 5.6355-12.173 5.9149-21.738 16.465-26.706 29.451-3.0404 7.9553-4.1183 22.242-2.3022 30.596 2.8412 13.061 11.967 26.264 23.169 33.52 12.958 8.3918 26.39 10.992 40.97 7.9313zm-144.61-65.035c17.344-5.3836 31.681-20.362 36.372-37.996 1.7809-6.6835 1.7867-20.82 0.0111-27.487-3.4739-13.061-13.079-25.915-24.35-32.596-18.609-11.029-40.621-10.475-58.483 1.4704-10.454 6.9917-17.301 16.183-21.738 29.183-2.478 7.2606-2.4897 24.009-0.0215 31.336 6.7854 20.146 22.823 34.224 43.324 38.031 6.1258 1.1365 17.938 0.23445 24.888-1.9449zm-150.23-63.668c18.803-5.4715 33.535-21.98 37.676-42.215 1.2829-6.2694 1.3766-9.0063 0.52723-15.667-4.3526-34.877-38.84-56.575-71.739-45.134-32.151 11.181-46.16 49.71-28.665 78.844 12.921 21.517 37.918 31.235 62.178 24.172zm462.35-125.72c23.199-54.531 42.214-99.452 42.255-99.825 0.17583-1.3356-455.69-194.91-456.34-193.78-0.91386 1.5934-83.548 195.48-84.06 197.23-0.35149 1.1892 26.844 13.119 131.86 57.86 72.761 31.001 175.02 74.618 227.26 96.928 52.226 22.31 95.383 40.598 95.906 40.641 0.52723 0.04324 19.929-44.538 43.129-99.067zm-91.556-22.799c-22.416-9.6091-27.498-12.124-27.324-13.521 0.11723-0.94316 5.3309-13.681 11.588-28.303 7.373-17.236 11.808-26.489 12.605-26.305 3.1165 0.71468 55.821 23.468 55.603 24.003-5.5652 13.611-24.041 55.949-24.413 55.943-0.29307-0.0072-12.914-5.325-28.059-11.815z" fill="#fff" stroke-width=".94957"/>
  </g>
 </g>
</svg>
