<svg width="100" height="100" version="1.1" viewBox="0 0 26.458 26.458" xmlns="http://www.w3.org/2000/svg">
 <g transform="matrix(.025838 0 0 .025838 5.1367 17.866)">
  <rect x="-198.82" y="-691.47" width="1024" height="1024" ry="203.07" fill="#ff9800"/>
  <path d="m-90.321 230.98c0-1.1432 295.54-695.22 298.7-701.46 2.8122-5.5785 6.4053-9.0975 12.371-12.113 3.8432-1.9445 5.5795-2.3018 11.168-2.307 5.7326-3e-3 7.5593 0.40831 13.65 2.95 30.558 12.846 494.13 210.53 496.41 211.7 3.9402 2.0007 9.6376 8.3152 11.79 13.065 1.3218 2.9143 1.7506 5.504 1.7455 10.486l-0.01 6.6186-200.94 471.93-299.22 0.0455-4.8945-4.4302c-8.9712-8.1176-19.628-12.114-32.309-12.114-12.296 0-24.777 5.1538-32.916 13.59l-2.8479 2.9551h-26.724c-14.699 0-26.724-0.15319-26.724-0.30607 0-0.1532 1.082-2.6846 2.4039-5.5968 6.467-14.262 5.2513-31.365-3.1541-44.339-8.8762-13.705-23.511-21.872-39.322-21.946-8.4529-0.0392-14.129 1.2352-21.585 4.8486-7.4551 3.6136-13.407 8.85-18.018 15.852-5.3897 8.1855-7.3204 14.018-7.8222 23.635-0.51038 9.3222 0.51039 14.964 3.9861 22.673l2.3325 5.1706h-69.026c-49.894 0-69.027-0.25534-69.027-0.91358zm509-3.9963c3.4502-0.883 7.8823-2.4243 9.8528-3.4247 17.684-8.9964 28.45-29.249 25.629-48.216-3.6186-24.336-22.73-41.067-46.91-41.067-37.943 0-60.167 41.786-39.031 73.388 11.115 16.618 31.101 24.271 50.458 19.32zm-132.17-55.07c14.244-2.9909 26.346-12.41 32.547-25.335 4.1494-8.652 5.484-15.305 4.8384-24.15-1.8016-24.605-22.098-43.751-46.483-43.854-8.2427-0.0351-14.062 1.2913-21.534 4.915-10.55 5.113-19.192 14.795-23.549 26.379-2.3375 6.2103-3.1797 19.117-1.6996 25.93 3.542 16.281 16.229 29.904 32.716 35.129 7.842 2.4856 14.638 2.7714 23.164 0.98502zm-130.71-55.43c17.38-3.6493 31.886-17.328 36.413-34.335 1.5516-5.8352 1.5516-18.144 0-23.979-4.1749-15.691-17.149-28.86-33.103-33.598-7.5531-2.2457-19.088-2.0416-26.846 0.45934-14.827 4.8027-25.846 15.933-31.149 31.465-2.1743 6.3614-2.1743 20.937-1e-3 27.301 3.5931 10.529 8.7708 17.86 16.955 24.002 11.32 8.4958 24.33 11.486 37.732 8.6724zm319.34-25.646c14.244-2.9909 26.346-12.41 32.547-25.335 4.1545-8.6525 5.4846-15.305 4.8384-24.15-1.8016-24.606-22.097-43.751-46.483-43.854-8.2442-0.03515-14.07 1.2963-21.51 4.9099-10.606 5.1533-18.939 14.345-23.267 25.659-2.6489 6.931-3.588 19.378-2.0058 26.656 2.4754 11.379 10.426 22.882 20.186 29.204 11.29 7.3113 22.992 9.5767 35.695 6.9101zm-125.99-56.661c15.111-4.6904 27.602-17.74 31.689-33.104 1.5516-5.8229 1.5566-18.139 0.01-23.948-3.0266-11.379-11.395-22.578-21.215-28.399-16.213-9.6089-35.391-9.1262-50.953 1.2811-9.1079 6.0914-15.073 14.099-18.939 25.425-2.1589 6.3257-2.1691 20.918-0.0187 27.301 5.9117 17.552 19.884 29.817 37.746 33.134 5.337 0.99016 15.628 0.20426 21.683-1.6945zm-130.89-55.47c16.382-4.767 29.217-19.15 32.825-36.779 1.1177-5.4621 1.1994-7.8466 0.45934-13.65-3.7922-30.386-33.839-49.29-62.502-39.322-28.011 9.7413-40.216 43.309-24.974 68.692 11.257 18.746 33.036 27.213 54.172 21.06zm402.82-109.53c20.212-47.51 36.778-86.646 36.814-86.971 0.15319-1.1636-397.01-169.81-397.58-168.83-0.79619 1.3882-72.79 170.31-73.236 171.83-0.30623 1.0361 23.388 11.43 114.88 50.41 63.392 27.009 152.48 65.01 198 84.447 45.501 19.437 83.101 35.371 83.557 35.408 0.45934 0.03767 17.363-38.803 37.576-86.311zm-79.767-19.863c-19.53-8.3718-23.957-10.563-23.806-11.78 0.10214-0.82172 4.6445-11.919 10.096-24.659 6.4236-15.017 10.288-23.078 10.982-22.918 2.7152 0.62266 48.633 20.446 48.443 20.912-4.8486 11.858-20.945 48.745-21.27 48.74-0.25533-6e-3 -11.251-4.6394-24.446-10.294z" fill="#fff" stroke-width=".8273"/>
 </g>
</svg>
